<mxfile host="Electron" modified="2023-07-06T18:24:03.355Z" agent="Mozilla/5.0 (Macintosh; Intel Mac OS X 10_15_7) AppleWebKit/537.36 (KHTML, like Gecko) draw.io/21.5.1 Chrome/112.0.5615.204 Electron/24.6.0 Safari/537.36" etag="sDXP3YJNeM_boW-S8p8B" version="21.5.1" type="device">
  <diagram name="Page-1" id="X9KCYJKLhhHAen8zXj6y">
    <mxGraphModel dx="690" dy="499" grid="1" gridSize="10" guides="1" tooltips="1" connect="1" arrows="1" fold="1" page="1" pageScale="1" pageWidth="827" pageHeight="1169" math="0" shadow="0">
      <root>
        <mxCell id="0" />
        <mxCell id="1" parent="0" />
        <mxCell id="_yEvTgZLEc9mn_p4VTmV-1" value="Root" style="shape=umlLifeline;perimeter=lifelinePerimeter;whiteSpace=wrap;html=1;container=1;dropTarget=0;collapsible=0;recursiveResize=0;outlineConnect=0;portConstraint=eastwest;newEdgeStyle={&quot;edgeStyle&quot;:&quot;elbowEdgeStyle&quot;,&quot;elbow&quot;:&quot;vertical&quot;,&quot;curved&quot;:0,&quot;rounded&quot;:0};participant=umlActor;fillColor=#f8cecc;strokeColor=#b85450;" vertex="1" parent="1">
          <mxGeometry x="149.99999999999977" y="150" width="20" height="300" as="geometry" />
        </mxCell>
        <mxCell id="_yEvTgZLEc9mn_p4VTmV-2" value="Set FD Params" style="rounded=0;whiteSpace=wrap;html=1;rotation=-90;fillColor=#ffcccc;strokeColor=#36393d;" vertex="1" parent="1">
          <mxGeometry x="99.99999999999977" y="253" width="120" height="30" as="geometry" />
        </mxCell>
        <mxCell id="_yEvTgZLEc9mn_p4VTmV-3" value="User" style="shape=umlLifeline;perimeter=lifelinePerimeter;whiteSpace=wrap;html=1;container=1;dropTarget=0;collapsible=0;recursiveResize=0;outlineConnect=0;portConstraint=eastwest;newEdgeStyle={&quot;edgeStyle&quot;:&quot;elbowEdgeStyle&quot;,&quot;elbow&quot;:&quot;vertical&quot;,&quot;curved&quot;:0,&quot;rounded&quot;:0};participant=umlActor;fillColor=#d5e8d4;strokeColor=#82b366;" vertex="1" parent="1">
          <mxGeometry x="230" y="150" width="20" height="570" as="geometry" />
        </mxCell>
        <mxCell id="_yEvTgZLEc9mn_p4VTmV-4" value="Open FD" style="rounded=0;whiteSpace=wrap;html=1;rotation=-90;fillColor=#d5e8d4;strokeColor=#82b366;" vertex="1" parent="1">
          <mxGeometry x="179.99999999999977" y="560" width="120" height="30" as="geometry" />
        </mxCell>
        <mxCell id="_yEvTgZLEc9mn_p4VTmV-5" value="Set Treasury" style="rounded=0;whiteSpace=wrap;html=1;rotation=-90;fillColor=#ffcccc;strokeColor=#36393d;" vertex="1" parent="1">
          <mxGeometry x="99.99999999999977" y="390" width="120" height="30" as="geometry" />
        </mxCell>
        <mxCell id="_yEvTgZLEc9mn_p4VTmV-6" value="Close FD" style="rounded=0;whiteSpace=wrap;html=1;rotation=-90;fillColor=#d5e8d4;strokeColor=#82b366;" vertex="1" parent="1">
          <mxGeometry x="179.99999999999977" y="730" width="120" height="30" as="geometry" />
        </mxCell>
        <mxCell id="_yEvTgZLEc9mn_p4VTmV-11" value="" style="group" vertex="1" connectable="0" parent="1">
          <mxGeometry x="876" y="70" width="414" height="338" as="geometry" />
        </mxCell>
        <mxCell id="_yEvTgZLEc9mn_p4VTmV-8" value="" style="shape=image;verticalLabelPosition=bottom;labelBackgroundColor=default;verticalAlign=top;aspect=fixed;imageAspect=0;image=https://mathcurve.com/courbes2d.gb/logarithmic/logarithmiccurve0a.gif;" vertex="1" parent="_yEvTgZLEc9mn_p4VTmV-11">
          <mxGeometry y="50" width="388" height="288" as="geometry" />
        </mxCell>
        <mxCell id="_yEvTgZLEc9mn_p4VTmV-9" value="" style="edgeStyle=none;orthogonalLoop=1;jettySize=auto;html=1;rounded=0;" edge="1" parent="_yEvTgZLEc9mn_p4VTmV-11">
          <mxGeometry width="100" relative="1" as="geometry">
            <mxPoint x="4" y="330" as="sourcePoint" />
            <mxPoint x="4" as="targetPoint" />
            <Array as="points" />
          </mxGeometry>
        </mxCell>
        <mxCell id="_yEvTgZLEc9mn_p4VTmV-15" value="1000" style="edgeLabel;html=1;align=center;verticalAlign=middle;resizable=0;points=[];" vertex="1" connectable="0" parent="_yEvTgZLEc9mn_p4VTmV-9">
          <mxGeometry x="0.712" y="1" relative="1" as="geometry">
            <mxPoint as="offset" />
          </mxGeometry>
        </mxCell>
        <mxCell id="_yEvTgZLEc9mn_p4VTmV-16" value="0" style="edgeLabel;html=1;align=center;verticalAlign=middle;resizable=0;points=[];" vertex="1" connectable="0" parent="_yEvTgZLEc9mn_p4VTmV-9">
          <mxGeometry x="-0.9744" y="1" relative="1" as="geometry">
            <mxPoint as="offset" />
          </mxGeometry>
        </mxCell>
        <mxCell id="_yEvTgZLEc9mn_p4VTmV-10" value="" style="edgeStyle=none;orthogonalLoop=1;jettySize=auto;html=1;rounded=0;" edge="1" parent="_yEvTgZLEc9mn_p4VTmV-11">
          <mxGeometry width="100" relative="1" as="geometry">
            <mxPoint x="4" y="329" as="sourcePoint" />
            <mxPoint x="414" y="329" as="targetPoint" />
            <Array as="points" />
          </mxGeometry>
        </mxCell>
        <mxCell id="_yEvTgZLEc9mn_p4VTmV-12" value="Investment&lt;br&gt;Score (IS)" style="text;html=1;align=center;verticalAlign=middle;resizable=0;points=[];autosize=1;strokeColor=none;fillColor=none;" vertex="1" parent="1">
          <mxGeometry x="796" y="170" width="80" height="40" as="geometry" />
        </mxCell>
        <mxCell id="_yEvTgZLEc9mn_p4VTmV-13" value="Time" style="text;html=1;align=center;verticalAlign=middle;resizable=0;points=[];autosize=1;strokeColor=none;fillColor=none;" vertex="1" parent="1">
          <mxGeometry x="1025" y="408" width="50" height="30" as="geometry" />
        </mxCell>
      </root>
    </mxGraphModel>
  </diagram>
</mxfile>
